<?xml version="1.0" encoding="utf-8"?>
<!-- Generator: Adobe Illustrator 16.0.0, SVG Export Plug-In . SVG Version: 6.00 Build 0)  -->
<!DOCTYPE svg PUBLIC "-//W3C//DTD SVG 1.1//EN" "http://www.w3.org/Graphics/SVG/1.1/DTD/svg11.dtd">
<svg version="1.1" id="Layer_1" xmlns="http://www.w3.org/2000/svg" xmlns:xlink="http://www.w3.org/1999/xlink" x="0px" y="0px"
	 width="21.249px" height="21.494px" viewBox="0 0 21.249 21.494" enable-background="new 0 0 21.249 21.494" xml:space="preserve">
<g>
	<g>
		<path fill="#FFFFFF" d="M10.624,21.494C4.766,21.494,0,16.728,0,10.87C0,5.011,4.766,0.246,10.624,0.246
			S21.248,5.011,21.248,10.87C21.248,16.728,16.482,21.494,10.624,21.494z M10.624,0.685c-5.616,0-10.186,4.569-10.186,10.185
			s4.569,10.185,10.186,10.185s10.185-4.569,10.185-10.185S16.24,0.685,10.624,0.685z"/>
	</g>
	<path fill="#FFFFFF" d="M10.624,1.941c-4.931,0-8.928,3.997-8.928,8.928s3.998,8.928,8.928,8.928s8.928-3.997,8.928-8.928
		S15.555,1.941,10.624,1.941z M13.246,7.358c0,0-0.888,0-1.241,0c-0.438,0-0.529,0.179-0.529,0.632c0,0.377,0,1.094,0,1.094h1.77
		l-0.17,1.921h-1.6v5.739H9.185V11.03H7.993V9.084h1.192c0,0,0-0.28,0-1.532c0-1.438,0.769-2.188,2.474-2.188
		c0.279,0,1.587,0,1.587,0V7.358z"/>
</g>
</svg>
