<?xml version="1.0" encoding="utf-8"?>
<!-- Generator: Adobe Illustrator 16.0.0, SVG Export Plug-In . SVG Version: 6.00 Build 0)  -->
<!DOCTYPE svg PUBLIC "-//W3C//DTD SVG 1.1//EN" "http://www.w3.org/Graphics/SVG/1.1/DTD/svg11.dtd">
<svg version="1.1" id="Layer_1" xmlns="http://www.w3.org/2000/svg" xmlns:xlink="http://www.w3.org/1999/xlink" x="0px" y="0px"
	 width="21.249px" height="21.494px" viewBox="0 0 21.249 21.494" enable-background="new 0 0 21.249 21.494" xml:space="preserve">
<g>
	<path fill="#FFFFFF" d="M10.624,21.494C4.766,21.494,0,16.728,0,10.87C0,5.012,4.766,0.246,10.624,0.246
		c5.858,0,10.625,4.766,10.625,10.624C21.249,16.728,16.482,21.494,10.624,21.494z M10.624,0.685
		c-5.616,0-10.185,4.569-10.185,10.186c0,5.616,4.569,10.185,10.185,10.185c5.616,0,10.186-4.569,10.186-10.185
		C20.81,5.254,16.24,0.685,10.624,0.685z"/>
</g>
<g>
	<circle fill="#FFFFFF" cx="10.633" cy="11.057" r="1.721"/>
	<path fill="#FFFFFF" d="M14.657,8.013c-0.093-0.241-0.205-0.413-0.386-0.593c-0.181-0.181-0.352-0.293-0.593-0.386
		c-0.182-0.071-0.455-0.155-0.958-0.178c-0.544-0.025-0.708-0.03-2.086-0.03S9.092,6.83,8.548,6.855
		C8.044,6.878,7.771,6.962,7.589,7.033C7.349,7.126,7.176,7.239,6.996,7.419C6.815,7.6,6.704,7.771,6.609,8.013
		c-0.07,0.182-0.154,0.455-0.178,0.958c-0.024,0.544-0.03,0.708-0.03,2.086s0.005,1.542,0.03,2.086
		c0.023,0.503,0.107,0.776,0.178,0.958c0.094,0.241,0.206,0.413,0.386,0.594c0.181,0.18,0.353,0.292,0.594,0.386
		c0.182,0.071,0.455,0.155,0.958,0.178c0.544,0.024,0.708,0.03,2.085,0.03c1.378,0,1.542-0.005,2.086-0.03
		c0.503-0.023,0.776-0.107,0.958-0.178c0.241-0.094,0.413-0.206,0.593-0.386c0.181-0.181,0.293-0.353,0.386-0.594
		c0.071-0.182,0.155-0.455,0.178-0.958c0.025-0.544,0.03-0.708,0.03-2.086s-0.005-1.542-0.03-2.086
		C14.813,8.468,14.728,8.195,14.657,8.013z M10.633,13.708c-1.464,0-2.65-1.187-2.65-2.65s1.187-2.651,2.65-2.651
		c1.464,0,2.651,1.187,2.651,2.651S12.098,13.708,10.633,13.708z M13.389,8.921c-0.342,0-0.62-0.278-0.62-0.62
		c0-0.342,0.277-0.62,0.62-0.62c0.342,0,0.619,0.277,0.619,0.62C14.008,8.644,13.731,8.921,13.389,8.921z"/>
	<path fill="#FFFFFF" d="M10.624,1.942c-4.931,0-8.928,3.997-8.928,8.928c0,4.931,3.998,8.928,8.928,8.928s8.928-3.998,8.928-8.928
		C19.552,5.939,15.555,1.942,10.624,1.942z M15.765,13.186c-0.025,0.549-0.113,0.924-0.24,1.253
		c-0.132,0.339-0.308,0.627-0.595,0.914c-0.287,0.287-0.575,0.463-0.915,0.596c-0.328,0.127-0.704,0.214-1.253,0.239
		c-0.55,0.025-0.727,0.031-2.128,0.031s-1.577-0.006-2.128-0.031c-0.549-0.025-0.925-0.112-1.253-0.239
		c-0.339-0.132-0.626-0.309-0.914-0.596c-0.287-0.287-0.464-0.575-0.596-0.914c-0.127-0.329-0.215-0.704-0.24-1.253
		c-0.025-0.551-0.031-0.727-0.031-2.128s0.006-1.578,0.031-2.128c0.025-0.549,0.112-0.925,0.24-1.253
		c0.132-0.339,0.309-0.627,0.596-0.915c0.287-0.287,0.575-0.463,0.914-0.595c0.329-0.127,0.704-0.215,1.253-0.24
		c0.551-0.025,0.726-0.031,2.128-0.031s1.578,0.005,2.128,0.031c0.549,0.025,0.925,0.112,1.253,0.24
		c0.34,0.132,0.627,0.309,0.915,0.595c0.287,0.287,0.463,0.575,0.595,0.915c0.127,0.328,0.215,0.704,0.24,1.253
		c0.025,0.551,0.031,0.727,0.031,2.128S15.79,12.635,15.765,13.186z"/>
</g>
</svg>
