<?xml version="1.0" encoding="utf-8"?>
<!-- Generator: Adobe Illustrator 16.0.0, SVG Export Plug-In . SVG Version: 6.00 Build 0)  -->
<!DOCTYPE svg PUBLIC "-//W3C//DTD SVG 1.1//EN" "http://www.w3.org/Graphics/SVG/1.1/DTD/svg11.dtd">
<svg version="1.1" id="Layer_1" xmlns="http://www.w3.org/2000/svg" xmlns:xlink="http://www.w3.org/1999/xlink" x="0px" y="0px"
	 width="21.249px" height="21.494px" viewBox="0 0 21.249 21.494" enable-background="new 0 0 21.249 21.494" xml:space="preserve">
<path fill-rule="evenodd" clip-rule="evenodd" fill="#FFFFFF" d="M10.594,0.188c5.869-0.007,10.647,4.768,10.654,10.647
	c0.005,5.873-4.765,10.651-10.642,10.659C4.737,21.5-0.041,16.725-0.047,10.847C-0.052,4.973,4.717,0.196,10.594,0.188z
	 M10.611,20.447c5.276-0.007,9.607-4.352,9.592-9.623c-0.015-5.273-4.335-9.588-9.601-9.589c-5.275-0.001-9.609,4.335-9.604,9.61
	C1.003,16.124,5.339,20.456,10.611,20.447z"/>
<path fill-rule="evenodd" clip-rule="evenodd" fill="#FFFFFF" d="M10.281,4.792c1.784,0.034,3.38,0.56,4.691,1.812
	c1.481,1.417,1.969,3.581,0.99,5.389c-0.262,0.482-0.603,0.945-0.993,1.331c-1.266,1.256-2.744,2.245-4.235,3.209
	c-0.229,0.149-0.495,0.258-0.758,0.334c-0.262,0.075-0.357-0.05-0.281-0.31c0.084-0.29,0.19-0.575,0.25-0.869
	c0.073-0.361-0.063-0.51-0.442-0.582c-0.483-0.091-0.978-0.154-1.442-0.307c-1.653-0.542-2.96-1.519-3.633-3.173
	c-0.602-1.48-0.414-2.913,0.49-4.22c1.051-1.519,2.571-2.275,4.364-2.54c0.165-0.024,0.332-0.039,0.498-0.05
	C9.947,4.804,10.114,4.799,10.281,4.792z M10.129,10.048c0.086,0.121,0.132,0.18,0.173,0.243c0.328,0.499,0.653,0.998,0.982,1.495
	c0.115,0.172,0.268,0.278,0.484,0.209c0.208-0.065,0.195-0.25,0.196-0.415c0.005-0.493,0.003-0.987,0.001-1.479
	c0-0.263,0.014-0.528-0.021-0.786c-0.012-0.089-0.148-0.21-0.241-0.224c-0.072-0.01-0.185,0.112-0.241,0.201
	c-0.042,0.065-0.027,0.169-0.027,0.256c-0.002,0.43,0,0.859-0.002,1.289c0,0.057-0.013,0.113-0.025,0.216
	c-0.395-0.6-0.763-1.157-1.128-1.714c-0.105-0.16-0.218-0.307-0.439-0.253C9.614,9.139,9.588,9.331,9.586,9.517
	c-0.005,0.716-0.002,1.432-0.001,2.148c0,0.047-0.003,0.109,0.022,0.139c0.067,0.078,0.152,0.2,0.226,0.197
	c0.091-0.003,0.207-0.097,0.26-0.184c0.047-0.079,0.034-0.2,0.035-0.302C10.131,11.049,10.129,10.584,10.129,10.048z M13.196,10.708
	c0.068-0.004,0.108-0.008,0.146-0.008c0.351-0.001,0.702,0.011,1.051-0.012c0.084-0.006,0.207-0.119,0.229-0.205
	c0.037-0.142-0.085-0.206-0.22-0.214c-0.096-0.005-0.191-0.003-0.287-0.003c-0.307,0-0.613,0-0.909,0c0-0.256,0-0.474,0-0.707
	c0.427,0,0.833,0,1.237,0c0.156,0,0.305-0.029,0.302-0.221c-0.002-0.188-0.15-0.22-0.307-0.219
	c-0.478,0.001-0.956-0.004-1.434,0.002c-0.313,0.003-0.394,0.082-0.396,0.403c-0.006,0.685-0.006,1.37,0,2.055
	c0.003,0.309,0.088,0.389,0.408,0.396c0.366,0.007,0.733,0.003,1.099,0.001c0.159,0,0.324,0.015,0.474-0.023
	c0.081-0.021,0.192-0.143,0.189-0.215c-0.003-0.075-0.115-0.167-0.201-0.212c-0.07-0.036-0.171-0.013-0.259-0.014
	c-0.371,0-0.743,0-1.124,0C13.196,11.231,13.196,10.98,13.196,10.708z M6.493,11.502c0-0.119,0-0.211,0-0.305
	c-0.001-0.596,0.001-1.192-0.007-1.788C6.483,9.227,6.408,9.072,6.192,9.077C5.991,9.082,5.921,9.223,5.921,9.401
	c-0.002,0.748,0,1.495-0.001,2.242c-0.001,0.219,0.121,0.318,0.325,0.328c0.183,0.008,0.365,0.007,0.548,0.006
	c0.302-0.001,0.604,0.002,0.905-0.011c0.138-0.006,0.25-0.075,0.242-0.237c-0.007-0.158-0.114-0.216-0.256-0.223
	c-0.087-0.004-0.175-0.003-0.262-0.003C7.122,11.501,6.822,11.502,6.493,11.502z M8.935,10.548c0-0.286,0.001-0.572-0.001-0.859
	c0-0.119-0.001-0.239-0.018-0.357C8.894,9.17,8.799,9.068,8.627,9.077c-0.172,0.009-0.25,0.121-0.263,0.284
	C8.359,9.433,8.357,9.504,8.357,9.576c0,0.645-0.001,1.289,0,1.934c0,0.079,0.002,0.159,0.009,0.238
	c0.014,0.155,0.099,0.256,0.255,0.266c0.168,0.011,0.269-0.084,0.295-0.248c0.013-0.079,0.017-0.159,0.017-0.238
	C8.936,11.201,8.935,10.875,8.935,10.548z"/>
</svg>
