<?xml version="1.0" encoding="utf-8"?>
<!-- Generator: Adobe Illustrator 16.0.0, SVG Export Plug-In . SVG Version: 6.00 Build 0)  -->
<!DOCTYPE svg PUBLIC "-//W3C//DTD SVG 1.1//EN" "http://www.w3.org/Graphics/SVG/1.1/DTD/svg11.dtd">
<svg version="1.1" id="Layer_1" xmlns="http://www.w3.org/2000/svg" xmlns:xlink="http://www.w3.org/1999/xlink" x="0px" y="0px"
	 width="21.25px" height="21.494px" viewBox="0 0 21.25 21.494" enable-background="new 0 0 21.25 21.494" xml:space="preserve">
<path fill="#FFFFFF" d="M10.687,0c3.044,0.059,5.766,0.955,8.002,3.091c2.525,2.417,3.357,6.108,1.688,9.192
	c-0.445,0.821-1.028,1.612-1.693,2.271c-2.16,2.142-4.682,3.828-7.224,5.473c-0.391,0.255-0.845,0.44-1.293,0.569
	c-0.447,0.13-0.608-0.085-0.479-0.527c0.144-0.497,0.324-0.984,0.427-1.483c0.124-0.615-0.107-0.87-0.754-0.992
	c-0.823-0.157-1.668-0.263-2.458-0.524c-2.82-0.924-5.049-2.591-6.197-5.411c-1.027-2.525-0.706-4.97,0.835-7.198
	c1.793-2.591,4.385-3.882,7.444-4.333c0.281-0.042,0.565-0.066,0.849-0.086C10.118,0.021,10.402,0.012,10.687,0z M10.428,8.965
	c0.146,0.207,0.226,0.307,0.295,0.415c0.56,0.852,1.114,1.702,1.677,2.55c0.194,0.293,0.455,0.473,0.823,0.356
	c0.354-0.11,0.332-0.427,0.335-0.708c0.008-0.841,0.003-1.684,0-2.522c0-0.449,0.024-0.9-0.035-1.341
	c-0.02-0.151-0.25-0.358-0.41-0.382c-0.124-0.017-0.315,0.192-0.41,0.343c-0.073,0.111-0.047,0.288-0.047,0.437
	c-0.004,0.734,0,1.466-0.004,2.2c0,0.096-0.022,0.192-0.043,0.367c-0.672-1.022-1.3-1.973-1.923-2.923
	c-0.179-0.273-0.372-0.523-0.75-0.432C9.549,7.415,9.505,7.742,9.502,8.06C9.494,9.28,9.499,10.502,9.5,11.723
	c0,0.08-0.005,0.187,0.038,0.237c0.113,0.134,0.258,0.342,0.385,0.337c0.156-0.006,0.354-0.167,0.443-0.313
	c0.08-0.137,0.059-0.342,0.06-0.517C10.431,10.673,10.428,9.879,10.428,8.965z M15.658,10.09c0.118-0.006,0.186-0.013,0.249-0.013
	c0.601-0.002,1.199,0.018,1.794-0.021c0.144-0.01,0.354-0.203,0.392-0.35c0.063-0.243-0.146-0.352-0.377-0.365
	c-0.162-0.008-0.326-0.005-0.489-0.005c-0.523,0-1.045,0-1.549,0c0-0.438,0-0.809,0-1.206c0.727,0,1.419,0,2.109,0
	c0.267,0,0.52-0.049,0.516-0.377c-0.004-0.32-0.256-0.375-0.524-0.373c-0.815,0.002-1.631-0.007-2.447,0.003
	c-0.533,0.005-0.672,0.14-0.674,0.688c-0.011,1.168-0.011,2.336,0,3.505c0.005,0.526,0.149,0.663,0.696,0.677
	c0.624,0.01,1.25,0.004,1.873,0c0.272,0,0.553,0.027,0.811-0.038c0.136-0.035,0.325-0.246,0.321-0.368
	c-0.005-0.128-0.195-0.284-0.342-0.36c-0.12-0.062-0.294-0.023-0.443-0.023c-0.633,0-1.266,0-1.917,0
	C15.658,10.982,15.658,10.555,15.658,10.09z M4.227,11.445c0-0.204,0-0.36,0-0.521c-0.001-1.016,0.001-2.034-0.013-3.05
	c-0.005-0.31-0.132-0.574-0.501-0.566C3.371,7.317,3.25,7.558,3.25,7.861c-0.003,1.275,0,2.55-0.001,3.824
	c-0.002,0.374,0.206,0.542,0.554,0.561c0.312,0.014,0.622,0.011,0.935,0.011c0.516-0.004,1.03,0.003,1.543-0.021
	c0.235-0.01,0.427-0.126,0.413-0.403c-0.011-0.271-0.195-0.37-0.437-0.381c-0.148-0.007-0.299-0.006-0.447-0.006
	C5.299,11.443,4.787,11.445,4.227,11.445z M8.392,9.817c0-0.487,0.002-0.975-0.002-1.464c0-0.204-0.002-0.408-0.03-0.609
	c-0.038-0.276-0.2-0.451-0.493-0.435C7.573,7.324,7.439,7.516,7.417,7.792C7.409,7.917,7.406,8.037,7.406,8.161
	c0,1.1-0.002,2.198,0,3.298c0,0.135,0.003,0.271,0.016,0.405c0.023,0.266,0.168,0.438,0.435,0.456
	c0.286,0.016,0.458-0.145,0.503-0.425c0.022-0.136,0.028-0.272,0.028-0.405C8.394,10.933,8.392,10.376,8.392,9.817z"/>
</svg>
