<?xml version="1.0" encoding="utf-8"?>
<!-- Generator: Adobe Illustrator 16.0.0, SVG Export Plug-In . SVG Version: 6.00 Build 0)  -->
<!DOCTYPE svg PUBLIC "-//W3C//DTD SVG 1.1//EN" "http://www.w3.org/Graphics/SVG/1.1/DTD/svg11.dtd">
<svg version="1.1" id="Layer_1" xmlns="http://www.w3.org/2000/svg" xmlns:xlink="http://www.w3.org/1999/xlink" x="0px" y="0px"
	 width="21.249px" height="21.494px" viewBox="0 0 21.249 21.494" enable-background="new 0 0 21.249 21.494" xml:space="preserve">
<g>
	<g>
		<path fill="#FFFFFF" d="M10.624,21.494C4.766,21.494,0,16.728,0,10.87C0,5.012,4.766,0.246,10.624,0.246
			S21.248,5.012,21.248,10.87C21.248,16.728,16.482,21.494,10.624,21.494z M10.624,0.685c-5.616,0-10.185,4.569-10.185,10.186
			c0,5.616,4.569,10.185,10.185,10.185s10.185-4.569,10.185-10.185C20.809,5.254,16.24,0.685,10.624,0.685z"/>
	</g>
	<path fill="#FFFFFF" d="M10.624,1.941c-4.931,0-8.928,3.998-8.928,8.929c0,4.931,3.997,8.928,8.928,8.928
		c4.931,0,8.928-3.997,8.928-8.928C19.552,5.939,15.555,1.941,10.624,1.941z M15.28,9.263c0.13,2.895-2.029,6.122-5.85,6.122
		c-1.162,0-2.244-0.341-3.155-0.925c1.092,0.129,2.182-0.173,3.047-0.852c-0.901-0.017-1.661-0.612-1.922-1.429
		c0.322,0.062,0.639,0.043,0.929-0.035c-0.99-0.199-1.673-1.091-1.651-2.044c0.277,0.154,0.595,0.247,0.933,0.258
		C6.694,9.745,6.434,8.534,6.974,7.609c1.015,1.245,2.531,2.064,4.242,2.15c-0.3-1.288,0.677-2.527,2.005-2.527
		c0.592,0,1.127,0.25,1.503,0.65c0.468-0.093,0.909-0.264,1.306-0.5c-0.154,0.481-0.48,0.884-0.905,1.139
		c0.417-0.049,0.813-0.16,1.182-0.324C16.031,8.61,15.682,8.973,15.28,9.263z"/>
</g>
</svg>
