<?xml version="1.0" encoding="utf-8"?>
<!-- Generator: Adobe Illustrator 16.0.0, SVG Export Plug-In . SVG Version: 6.00 Build 0)  -->
<!DOCTYPE svg PUBLIC "-//W3C//DTD SVG 1.1//EN" "http://www.w3.org/Graphics/SVG/1.1/DTD/svg11.dtd">
<svg version="1.1" id="Layer_1" xmlns="http://www.w3.org/2000/svg" xmlns:xlink="http://www.w3.org/1999/xlink" x="0px" y="0px"
	 width="21.249px" height="21.494px" viewBox="0 0 21.249 21.494" enable-background="new 0 0 21.249 21.494" xml:space="preserve">
<g>
	<g>
		<path fill="#FFFFFF" d="M10.625,21.371C4.766,21.371,0,16.605,0,10.747C0,4.889,4.766,0.123,10.625,0.123
			c5.858,0,10.624,4.766,10.624,10.624C21.249,16.605,16.482,21.371,10.625,21.371z M10.625,0.562
			c-5.616,0-10.185,4.569-10.185,10.185c0,5.616,4.569,10.186,10.185,10.186c5.616,0,10.185-4.569,10.185-10.186
			C20.81,5.131,16.24,0.562,10.625,0.562z"/>
	</g>
	<g>
		<path fill="#FFFFFF" d="M10.743,6.002c-2.21,0-4.033,1.678-4.242,3.819C6.487,9.957,6.48,10.095,6.48,10.232
			c0,0.926,0.301,1.783,0.812,2.48L6.76,14.284l1.638-0.522c0.674,0.443,1.479,0.7,2.345,0.7c2.35,0,4.263-1.896,4.263-4.229
			c0-0.112-0.005-0.221-0.015-0.33C14.82,7.724,12.981,6.002,10.743,6.002z M13.23,11.977c-0.102,0.29-0.61,0.567-0.838,0.586
			c-0.228,0.021-0.228,0.185-1.493-0.306c-1.263-0.496-2.061-1.783-2.122-1.863c-0.047-0.062-0.318-0.42-0.444-0.855
			C8.295,9.404,8.27,9.262,8.27,9.119c0-0.607,0.32-0.906,0.434-1.03c0.114-0.124,0.25-0.154,0.333-0.154s0.166,0.012,0.237,0.012
			c0.074,0,0.178-0.043,0.28,0.204c0.105,0.247,0.354,0.854,0.385,0.916C9.969,9.129,9.99,9.2,9.947,9.283
			C9.919,9.342,9.898,9.385,9.869,9.43C9.854,9.449,9.841,9.468,9.824,9.49C9.76,9.561,9.694,9.648,9.637,9.706
			C9.575,9.767,9.511,9.834,9.582,9.957c0.071,0.124,0.323,0.527,0.69,0.853c0.475,0.422,0.876,0.55,1,0.612
			c0.126,0.062,0.197,0.052,0.271-0.031c0.071-0.081,0.311-0.358,0.394-0.481c0.083-0.124,0.166-0.105,0.28-0.062
			c0.114,0.041,0.724,0.339,0.85,0.401c0.123,0.062,0.207,0.093,0.237,0.143C13.334,11.443,13.334,11.69,13.23,11.977z"/>
		<path fill="#FFFFFF" d="M10.625,1.819c-4.931,0-8.928,3.997-8.928,8.928c0,4.931,3.998,8.928,8.928,8.928s8.928-3.997,8.928-8.928
			C19.553,5.816,15.555,1.819,10.625,1.819z M10.743,15.264c-0.888,0-1.723-0.228-2.45-0.626L5.485,15.53l0.914-2.699
			c-0.46-0.759-0.726-1.647-0.726-2.599c0-0.073,0.002-0.147,0.005-0.221c0.118-2.678,2.34-4.811,5.065-4.811
			c2.758,0,4.999,2.184,5.067,4.904c0.002,0.042,0.002,0.085,0.002,0.128C15.813,13.012,13.543,15.264,10.743,15.264z"/>
	</g>
</g>
</svg>
