<?xml version="1.0" encoding="utf-8"?>
<!-- Generator: Adobe Illustrator 16.0.0, SVG Export Plug-In . SVG Version: 6.00 Build 0)  -->
<!DOCTYPE svg PUBLIC "-//W3C//DTD SVG 1.1//EN" "http://www.w3.org/Graphics/SVG/1.1/DTD/svg11.dtd">
<svg version="1.1" id="Layer_1" xmlns="http://www.w3.org/2000/svg" xmlns:xlink="http://www.w3.org/1999/xlink" x="0px" y="0px"
	 width="21.249px" height="21.494px" viewBox="0 0 21.249 21.494" enable-background="new 0 0 21.249 21.494" xml:space="preserve">
<g>
	<path fill="#FFFFFF" d="M10.624,21.248C4.766,21.248,0,16.482,0,10.624C0,4.766,4.766,0,10.624,0s10.624,4.766,10.624,10.624
		C21.248,16.482,16.482,21.248,10.624,21.248z M10.624,0.439c-5.616,0-10.185,4.569-10.185,10.185s4.569,10.185,10.185,10.185
		S20.81,16.24,20.81,10.624S16.24,0.439,10.624,0.439z"/>
</g>
<g>
	<path fill="#FFFFFF" d="M12.261,12.095c-0.202,0-0.376,0.129-0.504,0.285v-1.33h-0.571v4.131h0.571v-0.234
		c0.158,0.197,0.331,0.272,0.538,0.272c0.377,0,0.518-0.292,0.518-0.669v-1.691C12.813,12.445,12.676,12.095,12.261,12.095z
		 M12.23,14.466c0,0.098-0.016,0.167-0.049,0.21c-0.062,0.082-0.197,0.078-0.289,0.031c-0.043-0.021-0.088-0.058-0.135-0.107v-1.898
		c0.039-0.042,0.077-0.073,0.117-0.093c0.099-0.05,0.228-0.04,0.295,0.05c0.04,0.053,0.061,0.131,0.061,0.234V14.466z"/>
	<polygon fill="#FFFFFF" points="9.023,11.049 7.065,11.049 7.065,11.649 7.726,11.649 7.726,15.18 8.363,15.18 8.363,11.649 
		9.023,11.649 	"/>
	<path fill="#FFFFFF" d="M10.582,8.777c0.161,0,0.249-0.129,0.249-0.303V6.985c0-0.179-0.078-0.305-0.26-0.305
		c-0.167,0-0.248,0.13-0.248,0.305v1.489C10.322,8.643,10.417,8.777,10.582,8.777z"/>
	<path fill="#FFFFFF" d="M10.066,14.446c-0.069,0.087-0.223,0.229-0.333,0.229c-0.121,0-0.151-0.083-0.151-0.205v-2.336H9.016v2.547
		c0,0.619,0.419,0.622,0.724,0.447c0.113-0.065,0.222-0.159,0.327-0.283v0.336h0.566v-3.047h-0.566V14.446z"/>
	<path fill="#FFFFFF" d="M10.624,1.696c-4.931,0-8.928,3.997-8.928,8.928c0,4.931,3.998,8.928,8.928,8.928
		c4.931,0,8.928-3.998,8.928-8.928C19.552,5.693,15.555,1.696,10.624,1.696z M11.942,6.099h0.595v2.454
		c0,0.128,0.031,0.215,0.158,0.215c0.116,0,0.277-0.148,0.35-0.24V6.1h0.595v3.2h-0.595V8.946c-0.258,0.306-0.508,0.399-0.688,0.399
		c-0.319,0-0.416-0.255-0.416-0.571V6.099z M10.582,6.073c0.482,0,0.855,0.359,0.855,0.86v1.568c0,0.538-0.376,0.857-0.855,0.857
		c-0.576,0-0.872-0.293-0.872-0.857V6.933C9.71,6.419,10.058,6.073,10.582,6.073z M8.168,4.961L8.63,6.695l0.43-1.734h0.68
		L8.961,7.54v1.76h-0.67V7.54L7.494,4.961H8.168z M15.805,14.837c0,0.754-0.611,1.364-1.364,1.364H7.429
		c-0.753,0-1.364-0.61-1.364-1.364v-3.446c0-0.753,0.611-1.364,1.364-1.364h7.012c0.753,0,1.364,0.611,1.364,1.364V14.837z"/>
	<path fill="#FFFFFF" d="M14.102,12.056c-0.511,0-0.86,0.367-0.86,0.896v1.368c0,0.548,0.276,0.943,0.817,0.943
		c0.597,0,0.85-0.356,0.85-0.943v-0.229h-0.583v0.212c0,0.265-0.014,0.426-0.253,0.426c-0.229,0-0.248-0.197-0.248-0.426v-0.575
		h1.084v-0.776C14.908,12.401,14.646,12.056,14.102,12.056z M14.325,13.255h-0.501v-0.308c0-0.209,0.043-0.357,0.253-0.357
		c0.203,0,0.248,0.15,0.248,0.357V13.255z"/>
</g>
</svg>
